<svg xmlns="http://www.w3.org/2000/svg" viewBox="0 0 26.13 22.46"><defs><style>.a{fill:#1f2321;}.b{fill:none;stroke:#1f2321;stroke-linejoin:round;}</style></defs><title>0_MENU_Button_icon</title><path class="a" d="M5.18,1l.55,5.14-1.5,1,3.83,10,1.5-.48L12.44,21l-.52.44-4.55-.09A23,23,0,0,1,1.08,4L4.5,1h.67m0-1H4.5a1,1,0,0,0-.65.24L.43,3.22a1,1,0,0,0-.34.63,23.82,23.82,0,0,0,6.55,18.2,1,1,0,0,0,.71.32l4.55.09h0a1,1,0,0,0,.64-.23l.52-.44a1,1,0,0,0,.19-1.32l-2.88-4.29a1,1,0,0,0-1.13-.4l-.6.19L5.45,7.57,6.28,7a1,1,0,0,0,.44-.94L6.17.94a1,1,0,0,0-1-.89Z"/><path class="a" d="M6.22,1l1.25.12.29,4.49-1,.3L6.22,1m0-1a1,1,0,0,0-1,1.1L5.72,6A1,1,0,0,0,7,6.88l1-.3a1,1,0,0,0,.72-1L8.46,1.06a1,1,0,0,0-.9-.93L6.31,0Z"/><path class="a" d="M11.47,15.79l2.66,4-.76.76-3-4.22,1.15-.5m0-1a1,1,0,0,0-.39.08l-1.15.5a1,1,0,0,0-.42,1.5l3,4.22a1,1,0,0,0,.73.41h.08a1,1,0,0,0,.71-.29l.76-.76A1,1,0,0,0,15,19.19l-2.66-4a1,1,0,0,0-.83-.44Z"/><line class="b" x1="12.63" y1="11.23" x2="25.63" y2="11.23"/><polyline class="b" points="20.19 5.8 25.63 11.23 20.19 16.67"/></svg>