<?xml version="1.0" encoding="utf-8"?>
<!-- Generator: Adobe Illustrator 21.0.0, SVG Export Plug-In . SVG Version: 6.00 Build 0)  -->
<svg version="1.1" id="Layer_1" xmlns="http://www.w3.org/2000/svg" xmlns:xlink="http://www.w3.org/1999/xlink" x="0px" y="0px"
	 viewBox="0 0 419.6 103.6" style="enable-background:new 0 0 419.6 103.6;" xml:space="preserve">
<style type="text/css">
	.st0{clip-path:url(#SVGID_2_);}
	.st1{fill:#BDCCD4;}
	.st2{fill:#F7EC33;}
</style>
<title>1_UNI_Button_bg</title>
<g>
	<g>
		<defs>
			<polygon id="SVGID_1_" points="0,21.3 0,101.1 418.1,79.7 418.1,-0.1 			"/>
		</defs>
		<clipPath id="SVGID_2_">
			<use xlink:href="#SVGID_1_"  style="overflow:visible;"/>
		</clipPath>
		<g class="st0">
			<polygon class="st1" points="-59.8,103.6 -104.1,103.6 21.2,0 65.5,0 			"/>
			<polygon class="st2" points="-16.7,103.6 -61,103.6 64.2,0 108.6,0 			"/>
			<polygon class="st1" points="26.4,103.6 -17.9,103.6 107.4,0 151.7,0 			"/>
			<polygon class="st2" points="69.5,103.6 25.2,103.6 150.5,0 194.8,0 			"/>
			<polygon class="st1" points="112.6,103.6 68.3,103.6 193.6,0 237.9,0 			"/>
			<polygon class="st2" points="155.7,103.6 111.4,103.6 236.7,0 281,0 			"/>
			<polygon class="st1" points="198.8,103.6 154.5,103.6 279.8,0 324.1,0 			"/>
			<polygon class="st2" points="241.9,103.6 197.6,103.6 322.9,0 367.2,0 			"/>
			<polygon class="st1" points="285,103.6 240.7,103.6 366,0 410.3,0 			"/>
			<polygon class="st2" points="328.1,103.6 283.8,103.6 409.1,0 453.4,0 			"/>
			<polygon class="st1" points="371.2,103.6 326.9,103.6 452.2,0 496.5,0 			"/>
			<polygon class="st2" points="414.3,103.6 370,103.6 495.3,0 539.6,0 			"/>
		</g>
	</g>
</g>
</svg>
