<?xml version="1.0" encoding="utf-8"?>
<!-- Generator: Adobe Illustrator 21.0.0, SVG Export Plug-In . SVG Version: 6.00 Build 0)  -->
<svg version="1.1" id="Layer_1" xmlns="http://www.w3.org/2000/svg" xmlns:xlink="http://www.w3.org/1999/xlink" x="0px" y="0px"
	 viewBox="0 0 1918 613.4" style="enable-background:new 0 0 1918 613.4;" xml:space="preserve">
<style type="text/css">
	.st0{clip-path:url(#SVGID_2_);}
	.st1{fill:#EF4923;}
	.st2{fill:#F05A24;}
	.st3{fill:#E82128;}
	.st4{fill:#EE3D24;}
	.st5{fill:#EE402C;}
	.st6{fill:#EB3A25;}
	.st7{fill:#EE695A;}
	.st8{fill:#EE3F2A;}
	.st9{fill:#EF513F;}
	.st10{fill:#EE3F27;}
	.st11{fill:#EE422E;}
	.st12{fill:#EF4933;}
	.st13{fill:#F48A80;}
	.st14{fill:#EE5341;}
	.st15{fill:#DC1F26;}
	.st16{fill:#EC2F26;}
	.st17{fill:#EF4D3A;}
	.st18{fill:#F15056;}
	.st19{fill:#E93925;}
	.st20{fill:#EA2427;}
	.st21{fill:#F06D5E;}
	.st22{fill:#D32027;}
	.st23{fill:#B82025;}
	.st24{fill:#AB1F23;}
	.st25{fill:#EF4A36;}
	.st26{fill:#EE3D25;}
	.st27{fill:#EF4934;}
	.st28{fill:#F05B49;}
	.st29{fill:#EE5642;}
	.st30{fill:#F27467;}
	.st31{fill:#EF6251;}
	.st32{fill:#F06B5D;}
	.st33{fill:#F1796B;}
	.st34{fill:#F69E94;}
	.st35{fill:#EB2135;}
	.st36{fill:#EC3225;}
	.st37{fill:#EE6353;}
	.st38{fill:#F5958B;}
</style>
<title>3_BG</title>
<g>
	<defs>
		<polygon id="SVGID_1_" points="0,98.2 0,613.4 1918,515.2 1918,0 		"/>
	</defs>
	<clipPath id="SVGID_2_">
		<use xlink:href="#SVGID_1_"  style="overflow:visible;"/>
	</clipPath>
	<g class="st0">
		<polygon class="st1" points="478.3,326 641.2,240 623.6,551.1 		"/>
		<polygon class="st1" points="768.9,64.5 641.2,240 731.3,382.3 		"/>
		<polygon class="st2" points="623.6,551.1 641.2,240 731.3,382.3 		"/>
		<polygon class="st1" points="971.8,-51.4 768.9,64.5 1054.5,227.9 1057.8,222.5 		"/>
		<polygon class="st3" points="905.5,345.9 768.9,64.5 1054.5,226.7 		"/>
		<polygon class="st4" points="905.5,345.9 768.9,64.5 731.3,382.3 		"/>
		<polygon class="st1" points="905.5,345.9 998.1,544.5 731.3,382.3 		"/>
		<polygon class="st5" points="623.6,551.1 998.1,544.5 731.3,382.3 		"/>
		<polygon class="st3" points="623.6,551.1 998.1,544.5 1189.8,645.5 		"/>
		<polygon class="st6" points="623.6,551.1 1189.8,645.5 400.7,657.1 		"/>
		<polygon class="st5" points="905.5,345.9 998.1,544.5 1058.3,221.8 		"/>
		<polygon class="st1" points="1272.4,440.3 998.1,544.5 1058.3,221.8 		"/>
		<polygon class="st7" points="1272.4,440.3 1405.2,180.4 1058.3,221.8 		"/>
		<polygon class="st8" points="1272.4,440.3 1405.2,180.4 1510.4,403.8 		"/>
		<polygon class="st9" points="1272.4,440.3 1584.3,643.8 1510.4,403.8 		"/>
		<polygon class="st10" points="1272.4,440.3 1584.3,643.8 1189.8,645.5 		"/>
		<polygon class="st11" points="1272.4,440.3 998.1,544.5 1189.8,645.5 		"/>
		<polygon class="st12" points="1204.8,-140.8 1405.2,180.4 1058.3,221.8 		"/>
		<polygon class="st4" points="1204.8,-140.8 971.8,-51.4 1057.8,222.4 		"/>
		<polygon class="st13" points="1437.8,-154 1204.8,-140.8 1405.2,180.4 		"/>
		<polygon class="st14" points="1437.8,-154 1533,-11.6 1405.2,180.4 		"/>
		<polygon class="st15" points="1635.7,49.6 1533,-11.6 1405.2,180.4 		"/>
		<polygon class="st16" points="1635.7,49.6 1510.4,403.8 1405.2,180.4 		"/>
		<polygon class="st17" points="1635.7,49.6 1510.4,403.8 1704.6,226.7 		"/>
		<polygon class="st12" points="1584.3,643.8 1510.4,403.8 1704.6,226.7 		"/>
		<polygon class="st18" points="1598.1,-306.3 1437.8,-154 1533,-11.6 		"/>
		<polygon class="st3" points="1598.1,-306.3 1635.7,49.6 1533,-11.6 		"/>
		<polygon class="st19" points="1598.1,-306.3 1635.7,49.6 1777.2,-101 		"/>
		<polygon class="st20" points="1598.1,-306.3 1916.3,-296.3 1777.2,-101 		"/>
		<polygon class="st15" points="1952.6,-0.1 1916.3,-296.3 1777.2,-101 		"/>
		<polygon class="st20" points="1952.6,-0.1 1704.6,226.7 1777.2,-101 		"/>
		<polygon class="st21" points="1635.7,49.6 1704.6,226.7 1777.2,-101 		"/>
		<polygon class="st22" points="1833.6,-501.6 1598.1,-306.3 1916.3,-296.3 		"/>
		<polygon class="st23" points="1833.6,-501.6 2099.1,-524.8 1916.3,-296.3 		"/>
		<polygon class="st22" points="2102.9,-235.1 2099.1,-524.8 1916.3,-296.3 		"/>
		<polygon class="st23" points="2102.9,-235.1 1952.6,-0.1 1916.3,-296.3 		"/>
		<polygon class="st24" points="2102.9,-235.1 1952.6,-0.1 2096.6,223.4 		"/>
		<polygon class="st15" points="1877.4,481.6 1952.6,-0.1 2096.6,223.4 		"/>
		<polygon class="st5" points="1877.4,481.6 2096.6,655.4 2096.6,223.4 		"/>
		<polygon class="st16" points="1877.4,481.6 1952.6,-0.1 1704.6,226.7 		"/>
		<polygon class="st25" points="1877.4,481.6 1585.6,638.9 1704.6,226.7 		"/>
		<polygon class="st26" points="1877.4,481.6 1585.6,638.9 2101.6,652.1 		"/>
		<polygon class="st22" points="2099.1,-524.8 1983.9,-872.4 1833.6,-501.6 		"/>
		<polygon class="st23" points="2104.1,-935.3 1983.9,-872.4 2099.1,-524.8 		"/>
		<polygon class="st27" points="478.3,326 400.7,657.1 623.6,551.1 		"/>
		<polygon class="st17" points="227.8,481.6 478.3,326 400.7,657.1 		"/>
		<polygon class="st5" points="227.8,481.6 131.4,655.4 400.7,657.1 		"/>
		<polygon class="st28" points="227.8,481.6 131.4,655.4 65,508.1 		"/>
		<polygon class="st29" points="-204.3,652.1 131.4,655.4 65,508.1 		"/>
		<polygon class="st30" points="-204.3,652.1 -66.5,203.5 65,508.1 		"/>
		<polygon class="st31" points="-204.3,652.1 -66.5,203.5 -204.3,-10 		"/>
		<polygon class="st3" points="-30.2,-124.2 -66.5,203.5 -204.3,-10 		"/>
		<polygon class="st32" points="235.3,157.2 478.3,326 227.8,481.6 		"/>
		<polygon class="st33" points="65,508.1 235.3,157.2 227.8,481.6 		"/>
		<polygon class="st34" points="-70.3,200.2 235.3,157.2 65,508.1 		"/>
		<polygon class="st20" points="115.1,-71.2 235.3,157.2 -70.3,200.2 		"/>
		<polygon class="st15" points="115.1,-71.2 235.3,157.2 230.3,-86.4 		"/>
		<polygon class="st18" points="-30.2,-124.2 115.1,-71.2 -70.3,200.2 		"/>
		<polygon class="st3" points="533.4,54.4 768.9,64.5 641.2,240 		"/>
		<polygon class="st9" points="478.3,326 533.4,54.4 641.2,240 		"/>
		<polygon class="st35" points="478.3,326 235.3,157.2 533.4,54.4 		"/>
		<polygon class="st3" points="230.3,-86.4 235.3,157.2 533.4,54.4 		"/>
		<polygon class="st36" points="768.9,64.5 794,-154 533.4,54.4 		"/>
		<polygon class="st14" points="768.9,64.5 794,-154 971.8,-51.4 		"/>
		<polygon class="st37" points="944.3,-303 794,-154 971.8,-51.4 		"/>
		<polygon class="st38" points="944.3,-303 1204.8,-140.8 971.8,-51.4 		"/>
		<polygon class="st32" points="944.3,-303 1204.8,-140.8 1182.3,-432.1 		"/>
		<polygon class="st17" points="1320.1,-399 1204.8,-140.8 1182.3,-432.1 		"/>
		<polygon class="st32" points="1320.1,-399 1204.8,-140.8 1437.8,-154 		"/>
		<polygon class="st34" points="1320.1,-399 1598.1,-306.3 1437.8,-154 		"/>
		<polygon class="st37" points="1320.1,-399 1598.1,-306.3 1540.5,-571.1 		"/>
		<polygon class="st20" points="1833.6,-501.6 1598.1,-306.3 1540.5,-571.1 		"/>
		<polygon class="st21" points="1833.6,-501.6 1673.3,-773.1 1540.5,-571.1 		"/>
		<polygon class="st3" points="1833.6,-501.6 1673.3,-773.1 1983.9,-872.4 		"/>
		<polygon class="st18" points="1833.6,-501.6 1673.3,-773.1 1540.5,-571.1 		"/>
		<path class="st21" d="M-142.9-600.9"/>
	</g>
</g>
</svg>
