<svg xmlns="http://www.w3.org/2000/svg" viewBox="0 0 1933 920"><defs><style>.a{fill:#ef4923;}.b{fill:#f05a24;}.c{fill:#e82128;}.d{fill:#ee3d24;}.e{fill:#ee402c;}.f{fill:#eb3a25;}.g{fill:#ee695a;}.h{fill:#ee3f2a;}.i{fill:#ef513f;}.j{fill:#ee3f27;}.k{fill:#ee422e;}.l{fill:#ef4933;}.m{fill:#f48a80;}.n{fill:#ee5341;}.o{fill:#dc1f26;}.p{fill:#ec2f26;}.q{fill:#ef4d3a;}.r{fill:#f15056;}.s{fill:#e93925;}.t{fill:#ea2427;}.u{fill:#f06d5e;}.v{fill:#d32027;}.w{fill:#b82025;}.x{fill:#ab1f23;}.y{fill:#ef4a36;}.z{fill:#ee3d25;}.aa{fill:#ef4934;}.ab{fill:#f05b49;}.ac{fill:#ee5642;}.ad{fill:#f27467;}.ae{fill:#ef6251;}.af{fill:#f06b5d;}.ag{fill:#f1796b;}.ah{fill:#f69e94;}.ai{fill:#eb2135;}.aj{fill:#ec3225;}.ak{fill:#ee6353;}.al{fill:#f5958b;}</style></defs><title>6_FORM_bg</title><polygon class="a" points="571.91 711.21 708.33 656.92 693.64 853.19 571.91 711.21"/><polygon class="a" points="815.37 546.26 708.33 656.92 783.88 746.7 815.37 546.26"/><polygon class="b" points="693.64 853.19 708.33 656.92 783.88 746.7 693.64 853.19"/><polygon class="a" points="985.36 473.18 815.37 546.26 1054.62 649.3 1057.39 645.88 985.36 473.18"/><polygon class="c" points="929.75 723.74 815.37 546.26 1054.62 648.57 929.75 723.74"/><polygon class="d" points="929.75 723.74 815.37 546.26 783.88 746.7 929.75 723.74"/><polygon class="a" points="929.75 723.74 1007.4 849.01 783.88 746.7 929.75 723.74"/><polygon class="e" points="693.64 853.19 1007.4 849.01 783.88 746.7 693.64 853.19"/><polygon class="c" points="693.64 853.19 1007.4 849.01 1167.96 912.69 693.64 853.19"/><polygon class="f" points="693.64 853.19 1167.96 912.69 506.85 920 693.64 853.19"/><polygon class="e" points="929.75 723.74 1007.4 849.01 1057.77 645.44 929.75 723.74"/><polygon class="a" points="1237.21 783.24 1007.4 849.01 1057.77 645.44 1237.21 783.24"/><polygon class="g" points="1237.21 783.24 1348.45 619.34 1057.77 645.44 1237.21 783.24"/><polygon class="h" points="1237.21 783.24 1348.45 619.34 1436.6 760.27 1237.21 783.24"/><polygon class="i" points="1237.21 783.24 1498.51 911.65 1436.6 760.27 1237.21 783.24"/><polygon class="j" points="1237.21 783.24 1498.51 911.65 1167.96 912.69 1237.21 783.24"/><polygon class="k" points="1237.21 783.24 1007.4 849.01 1167.96 912.69 1237.21 783.24"/><polygon class="l" points="1180.55 416.81 1348.45 619.34 1057.77 645.44 1180.55 416.81"/><polygon class="d" points="1180.55 416.81 985.36 473.18 1057.34 645.87 1180.55 416.81"/><polygon class="m" points="1375.73 408.46 1180.55 416.81 1348.45 619.34 1375.73 408.46"/><polygon class="n" points="1375.73 408.46 1455.48 498.24 1348.45 619.34 1375.73 408.46"/><polygon class="o" points="1541.53 536.87 1455.48 498.24 1348.45 619.34 1541.53 536.87"/><polygon class="p" points="1541.53 536.87 1436.6 760.27 1348.45 619.34 1541.53 536.87"/><polygon class="q" points="1541.53 536.87 1436.6 760.27 1599.25 648.57 1541.53 536.87"/><polygon class="l" points="1498.51 911.65 1436.6 760.27 1599.25 648.57 1498.51 911.65"/><polygon class="r" points="1510.05 312.41 1375.73 408.46 1455.48 498.24 1510.05 312.41"/><polygon class="c" points="1510.05 312.41 1541.53 536.87 1455.48 498.24 1510.05 312.41"/><polygon class="s" points="1510.05 312.41 1541.53 536.87 1660.11 441.86 1510.05 312.41"/><polygon class="t" points="1510.05 312.41 1776.59 318.68 1660.11 441.86 1510.05 312.41"/><polygon class="o" points="1807.03 505.55 1776.59 318.68 1660.11 441.86 1807.03 505.55"/><polygon class="t" points="1807.03 505.55 1599.25 648.57 1660.11 441.86 1807.03 505.55"/><polygon class="u" points="1541.53 536.87 1599.25 648.57 1660.11 441.86 1541.53 536.87"/><polygon class="v" points="1707.34 189.22 1510.05 312.41 1776.59 318.68 1707.34 189.22"/><polygon class="w" points="1707.34 189.22 1929.8 174.61 1776.59 318.68 1707.34 189.22"/><polygon class="v" points="1932.95 357.3 1929.8 174.61 1776.59 318.68 1932.95 357.3"/><polygon class="w" points="1932.95 357.3 1807.03 505.55 1776.59 318.68 1932.95 357.3"/><polygon class="x" points="1932.95 357.3 1807.03 505.55 1927.7 646.48 1932.95 357.3"/><polygon class="o" points="1744.06 809.34 1807.03 505.55 1927.7 646.48 1744.06 809.34"/><polygon class="e" points="1744.06 809.34 1927.7 918.96 1927.7 646.48 1744.06 809.34"/><polygon class="p" points="1744.06 809.34 1807.03 505.55 1599.25 648.57 1744.06 809.34"/><polygon class="y" points="1744.06 809.34 1499.56 908.52 1599.25 648.57 1744.06 809.34"/><polygon class="z" points="1744.06 809.34 1499.56 908.52 1931.9 916.87 1744.06 809.34"/><polygon class="v" points="1929.8 174.61 1807.24 98.15 1707.34 189.22 1929.8 174.61"/><polygon class="w" points="1933 0 1807.24 98.15 1929.8 174.61 1933 0"/><polygon class="aa" points="571.91 711.21 506.85 920 693.64 853.19 571.91 711.21"/><polygon class="q" points="362.04 809.34 571.91 711.21 506.85 920 362.04 809.34"/><polygon class="e" points="362.04 809.34 281.23 918.96 506.85 920 362.04 809.34"/><polygon class="ab" points="362.04 809.34 281.23 918.96 225.62 826.04 362.04 809.34"/><polygon class="ac" points="0 916.87 281.23 918.96 225.62 826.04 0 916.87"/><polygon class="ad" points="0 916.87 115.43 633.95 225.62 826.04 0 916.87"/><polygon class="ae" points="0 916.87 115.43 633.95 0 499.28 0 916.87"/><polygon class="c" points="145.86 427.25 115.43 633.95 0 499.28 145.86 427.25"/><polygon class="af" points="368.33 604.72 571.91 711.21 362.04 809.34 368.33 604.72"/><polygon class="ag" points="225.62 826.04 368.33 604.72 362.04 809.34 225.62 826.04"/><polygon class="ah" points="112.28 631.87 368.33 604.72 225.62 826.04 112.28 631.87"/><polygon class="t" points="267.59 460.65 368.33 604.72 112.28 631.87 267.59 460.65"/><polygon class="o" points="267.59 460.65 368.33 604.72 364.13 451.06 267.59 460.65"/><polygon class="r" points="145.86 427.25 267.59 460.65 112.28 631.87 145.86 427.25"/><polygon class="c" points="618.08 552.52 815.37 546.26 708.33 656.92 618.08 552.52"/><polygon class="i" points="571.91 711.21 618.08 552.52 708.33 656.92 571.91 711.21"/><polygon class="ai" points="571.91 711.21 368.33 604.72 618.08 552.52 571.91 711.21"/><polygon class="c" points="364.13 451.06 368.33 604.72 618.08 552.52 364.13 451.06"/><polygon class="aj" points="815.37 546.26 837.35 458.46 618.08 552.52 815.37 546.26"/><polygon class="n" points="815.37 546.26 837.35 458.46 985.36 473.18 815.37 546.26"/><polygon class="ak" points="962.28 314.5 837.35 458.46 985.36 473.18 962.28 314.5"/><polygon class="al" points="962.28 314.5 1180.55 416.81 985.36 473.18 962.28 314.5"/><polygon class="af" points="962.28 314.5 1180.55 416.81 1161.66 263.53 962.28 314.5"/><polygon class="q" points="1277.09 253.95 1180.55 416.81 1161.66 263.53 1277.09 253.95"/><polygon class="af" points="1277.09 253.95 1180.55 416.81 1375.73 408.46 1277.09 253.95"/><polygon class="ah" points="1277.09 253.95 1510.05 312.41 1375.73 408.46 1277.09 253.95"/><polygon class="ak" points="1277.09 253.95 1510.05 312.41 1498.81 188.82 1277.09 253.95"/><polygon class="t" points="1707.34 189.22 1510.05 312.41 1498.81 188.82 1707.34 189.22"/><polygon class="u" points="1707.34 189.22 1593.15 79.17 1498.81 188.82 1707.34 189.22"/><polygon class="c" points="1707.34 189.22 1593.15 79.17 1807.24 98.15 1707.34 189.22"/><polygon class="r" points="1707.34 189.22 1593.15 79.17 1498.81 188.82 1707.34 189.22"/><path class="u" d="M51.42,126.59"/></svg>