<svg xmlns="http://www.w3.org/2000/svg" viewBox="0 0 43.85 71.42"><defs><style>.a{fill:#ff2800;}</style></defs><title>6_FORM_location</title><path class="a" d="M21.92,2.62a19.3,19.3,0,0,1,19.3,19.3c0,10.66-15.16,46.88-19.3,46.88S2.62,32.58,2.62,21.92a19.3,19.3,0,0,1,19.3-19.3m0-2.62A22,22,0,0,0,0,21.92c0,6.22,4.29,18.77,8.3,28.44C17,71.42,20.46,71.42,21.92,71.42s4.89,0,13.63-21.06c4-9.67,8.3-22.22,8.3-28.44A22,22,0,0,0,21.92,0Z"/><path class="a" d="M21.92,12.62a9.65,9.65,0,1,1-6.82,2.83,9.62,9.62,0,0,1,6.82-2.83m0-2.62a12.27,12.27,0,1,0,8.68,3.59A12.19,12.19,0,0,0,21.92,10Z"/></svg>