<svg xmlns="http://www.w3.org/2000/svg" viewBox="0 0 52.94 79.3"><defs><style>.a{fill:#ff2800;}</style></defs><title>6_FORM_Tel</title><path class="a" d="M17.89,3.06l2,18.45-5.38,3.58,13.76,36,5.39-1.72L44,74.82,42.1,76.39l-16.34-.33C-1.22,47.19,3.18,13.62,3.18,13.62L15.47,3.06h2.42m0-2.91H15.47a2.91,2.91,0,0,0-1.9.7L1.28,11.42a2.91,2.91,0,0,0-1,1.83,73.53,73.53,0,0,0,1.2,21.31A87.47,87.47,0,0,0,23.64,78a2.91,2.91,0,0,0,2.07.92L42,79.3h.06A2.91,2.91,0,0,0,44,78.62L45.84,77a2.91,2.91,0,0,0,.54-3.85L36,57.79a2.91,2.91,0,0,0-3.3-1.15L30,57.52,18,26.23l3.44-2.29a2.91,2.91,0,0,0,1.28-2.73l-2-18.45A2.91,2.91,0,0,0,17.89.15Z"/><path class="a" d="M21.62,2.91l4.49.43,1,16.14-3.72,1.08L21.62,2.91m0-2.91a2.91,2.91,0,0,0-2.9,3.2l1.79,17.65a2.91,2.91,0,0,0,3.71,2.5l3.72-1.08a2.91,2.91,0,0,0,2.09-3L29,3.16A2.91,2.91,0,0,0,26.39.45L21.9,0Z"/><path class="a" d="M40.5,56,50,70.22,47.29,73,36.35,57.79,40.5,56m0-2.91a2.9,2.9,0,0,0-1.15.24l-4.14,1.78A2.91,2.91,0,0,0,34,59.5L44.93,74.66a2.91,2.91,0,0,0,2.13,1.2h.23A2.91,2.91,0,0,0,49.35,75l2.74-2.74a2.91,2.91,0,0,0,.36-3.68l-9.54-14.2A2.91,2.91,0,0,0,40.5,53.1Z"/></svg>