<svg xmlns="http://www.w3.org/2000/svg" viewBox="0 0 37.89 50.08"><defs><style>.a{fill:#fff;}</style></defs><title>6_FORM_email</title><path class="a" d="M34.27,45.48a11,11,0,0,1-4,3.48,12.87,12.87,0,0,1-5.64,1.11,11.52,11.52,0,0,1-9.68-4.53,13.75,13.75,0,0,1-2.3-5.08,34.14,34.14,0,0,1-.7-7.66,37.52,37.52,0,0,1,.63-7.56,13.63,13.63,0,0,1,2.09-5,10.1,10.1,0,0,1,4.14-3.45,13.43,13.43,0,0,1,5.75-1.22,12.64,12.64,0,0,1,5.57,1.15,11.48,11.48,0,0,1,4.18,3.59v-6.2a15.44,15.44,0,0,0-.63-4.84,9,9,0,0,0-2.22-3.45A9.43,9.43,0,0,0,28,3.55a13,13,0,0,0-4.52-.7H14.32a12.73,12.73,0,0,0-4.48.7A9.5,9.5,0,0,0,6.47,5.78,9,9,0,0,0,4.25,9.19a15.38,15.38,0,0,0-.62,4.88V38.65a22.75,22.75,0,0,0,.17,3.06,7.12,7.12,0,0,0,.66,2.23,7.47,7.47,0,0,0,1.32,1.85,16.74,16.74,0,0,0,2.16,1.85L5.5,50.08a18.67,18.67,0,0,1-2.67-2.19,9.16,9.16,0,0,1-1.7-2.37,9.84,9.84,0,0,1-.89-2.92A26.65,26.65,0,0,1,0,38.65V14.28a16.68,16.68,0,0,1,1-6A13.23,13.23,0,0,1,3.84,3.76Q7.47,0,13.68,0H24.14A13.32,13.32,0,0,1,34,3.76q3.91,3.9,3.91,10.52V49.59H34.27Zm0-12.68A46.31,46.31,0,0,0,34,27.72a13.38,13.38,0,0,0-1.28-4.53,8.46,8.46,0,0,0-2.84-3.27,8.69,8.69,0,0,0-5-1.25,8.69,8.69,0,0,0-5,1.25,8.47,8.47,0,0,0-2.85,3.27,13.38,13.38,0,0,0-1.28,4.53,46.58,46.58,0,0,0,0,10.17,13.37,13.37,0,0,0,1.28,4.53,8.45,8.45,0,0,0,2.85,3.27,8.68,8.68,0,0,0,5,1.25,8.68,8.68,0,0,0,5-1.25,8.44,8.44,0,0,0,2.84-3.27A13.37,13.37,0,0,0,34,37.89,46.3,46.3,0,0,0,34.27,32.8Z"/></svg>